<mxfile host="app.diagrams.net" modified="2023-05-15T18:25:33.182Z" agent="Mozilla/5.0 (Windows NT 10.0; Win64; x64) AppleWebKit/537.36 (KHTML, like Gecko) Chrome/113.0.0.0 Safari/537.36" etag="A95Bp0li1shjONwa-aob" version="21.2.3" type="device">
  <diagram name="Page-1" id="FtV22t6WX7Bo7uLbYHTz">
    <mxGraphModel dx="1195" dy="637" grid="1" gridSize="10" guides="1" tooltips="1" connect="1" arrows="1" fold="1" page="1" pageScale="1" pageWidth="827" pageHeight="1169" math="0" shadow="0">
      <root>
        <mxCell id="0" />
        <mxCell id="1" parent="0" />
        <mxCell id="n5Q3YU20H20i3xik1-xb-12" value="2" style="whiteSpace=wrap;html=1;aspect=fixed;fillColor=#dae8fc;strokeColor=#6c8ebf;" vertex="1" parent="1">
          <mxGeometry x="120" y="120" width="40" height="40" as="geometry" />
        </mxCell>
        <mxCell id="n5Q3YU20H20i3xik1-xb-13" value="4" style="whiteSpace=wrap;html=1;aspect=fixed;fillColor=#dae8fc;strokeColor=#6c8ebf;" vertex="1" parent="1">
          <mxGeometry x="120" y="170" width="40" height="40" as="geometry" />
        </mxCell>
        <mxCell id="n5Q3YU20H20i3xik1-xb-14" value="6" style="whiteSpace=wrap;html=1;aspect=fixed;fillColor=#dae8fc;strokeColor=#6c8ebf;" vertex="1" parent="1">
          <mxGeometry x="120" y="220" width="40" height="40" as="geometry" />
        </mxCell>
        <mxCell id="n5Q3YU20H20i3xik1-xb-15" value="8" style="whiteSpace=wrap;html=1;aspect=fixed;fillColor=#dae8fc;strokeColor=#6c8ebf;" vertex="1" parent="1">
          <mxGeometry x="120" y="270" width="40" height="40" as="geometry" />
        </mxCell>
        <mxCell id="n5Q3YU20H20i3xik1-xb-16" value="8" style="whiteSpace=wrap;html=1;aspect=fixed;fillColor=#dae8fc;strokeColor=#6c8ebf;" vertex="1" parent="1">
          <mxGeometry x="120" y="320" width="40" height="40" as="geometry" />
        </mxCell>
        <mxCell id="n5Q3YU20H20i3xik1-xb-17" value="6" style="whiteSpace=wrap;html=1;aspect=fixed;fillColor=#dae8fc;strokeColor=#6c8ebf;" vertex="1" parent="1">
          <mxGeometry x="120" y="370" width="40" height="40" as="geometry" />
        </mxCell>
        <mxCell id="n5Q3YU20H20i3xik1-xb-18" value="4" style="whiteSpace=wrap;html=1;aspect=fixed;fillColor=#dae8fc;strokeColor=#6c8ebf;" vertex="1" parent="1">
          <mxGeometry x="120" y="420" width="40" height="40" as="geometry" />
        </mxCell>
        <mxCell id="n5Q3YU20H20i3xik1-xb-19" value="2" style="whiteSpace=wrap;html=1;aspect=fixed;fillColor=#dae8fc;strokeColor=#6c8ebf;" vertex="1" parent="1">
          <mxGeometry x="120" y="470" width="40" height="40" as="geometry" />
        </mxCell>
        <mxCell id="n5Q3YU20H20i3xik1-xb-70" value="" style="group;fillColor=#f5f5f5;fontColor=#333333;strokeColor=#666666;" vertex="1" connectable="0" parent="1">
          <mxGeometry x="160" y="140" width="80" height="20" as="geometry" />
        </mxCell>
        <mxCell id="n5Q3YU20H20i3xik1-xb-30" value="2" style="whiteSpace=wrap;html=1;aspect=fixed;fillColor=#f5f5f5;fontColor=#333333;strokeColor=#666666;" vertex="1" parent="n5Q3YU20H20i3xik1-xb-70">
          <mxGeometry width="20" height="20" as="geometry" />
        </mxCell>
        <mxCell id="n5Q3YU20H20i3xik1-xb-31" value="2" style="whiteSpace=wrap;html=1;aspect=fixed;fillColor=#f5f5f5;fontColor=#333333;strokeColor=#666666;" vertex="1" parent="n5Q3YU20H20i3xik1-xb-70">
          <mxGeometry x="20" width="20" height="20" as="geometry" />
        </mxCell>
        <mxCell id="n5Q3YU20H20i3xik1-xb-32" value="2" style="whiteSpace=wrap;html=1;aspect=fixed;fillColor=#f5f5f5;fontColor=#333333;strokeColor=#666666;" vertex="1" parent="n5Q3YU20H20i3xik1-xb-70">
          <mxGeometry x="40" width="20" height="20" as="geometry" />
        </mxCell>
        <mxCell id="n5Q3YU20H20i3xik1-xb-33" value="2" style="whiteSpace=wrap;html=1;aspect=fixed;fillColor=#dae8fc;strokeColor=#6c8ebf;" vertex="1" parent="n5Q3YU20H20i3xik1-xb-70">
          <mxGeometry x="60" width="20" height="20" as="geometry" />
        </mxCell>
        <mxCell id="n5Q3YU20H20i3xik1-xb-71" value="" style="group;fillColor=#f5f5f5;strokeColor=#666666;fontColor=#333333;" vertex="1" connectable="0" parent="1">
          <mxGeometry x="220" y="120" width="100" height="20" as="geometry" />
        </mxCell>
        <mxCell id="n5Q3YU20H20i3xik1-xb-24" value="1" style="whiteSpace=wrap;html=1;aspect=fixed;container=0;fillColor=#dae8fc;strokeColor=#6c8ebf;" vertex="1" parent="n5Q3YU20H20i3xik1-xb-71">
          <mxGeometry width="20" height="20" as="geometry" />
        </mxCell>
        <mxCell id="n5Q3YU20H20i3xik1-xb-25" value="1" style="whiteSpace=wrap;html=1;aspect=fixed;container=0;fillColor=#f5f5f5;strokeColor=#666666;fontColor=#333333;" vertex="1" parent="n5Q3YU20H20i3xik1-xb-71">
          <mxGeometry x="20" width="20" height="20" as="geometry" />
        </mxCell>
        <mxCell id="n5Q3YU20H20i3xik1-xb-26" value="1" style="whiteSpace=wrap;html=1;aspect=fixed;container=0;fillColor=#f5f5f5;strokeColor=#666666;fontColor=#333333;" vertex="1" parent="n5Q3YU20H20i3xik1-xb-71">
          <mxGeometry x="40" width="20" height="20" as="geometry" />
        </mxCell>
        <mxCell id="n5Q3YU20H20i3xik1-xb-27" value="1" style="whiteSpace=wrap;html=1;aspect=fixed;container=0;fillColor=#f5f5f5;strokeColor=#666666;fontColor=#333333;" vertex="1" parent="n5Q3YU20H20i3xik1-xb-71">
          <mxGeometry x="60" width="20" height="20" as="geometry" />
        </mxCell>
        <mxCell id="n5Q3YU20H20i3xik1-xb-28" value="1" style="whiteSpace=wrap;html=1;aspect=fixed;container=0;fillColor=#f5f5f5;strokeColor=#666666;fontColor=#333333;" vertex="1" parent="n5Q3YU20H20i3xik1-xb-71">
          <mxGeometry x="80" width="20" height="20" as="geometry" />
        </mxCell>
        <mxCell id="n5Q3YU20H20i3xik1-xb-72" value="" style="group" vertex="1" connectable="0" parent="1">
          <mxGeometry x="160" y="190" width="80" height="20" as="geometry" />
        </mxCell>
        <mxCell id="n5Q3YU20H20i3xik1-xb-73" value="2" style="whiteSpace=wrap;html=1;aspect=fixed;fillColor=#f5f5f5;fontColor=#333333;strokeColor=#666666;" vertex="1" parent="n5Q3YU20H20i3xik1-xb-72">
          <mxGeometry width="20" height="20" as="geometry" />
        </mxCell>
        <mxCell id="n5Q3YU20H20i3xik1-xb-74" value="2" style="whiteSpace=wrap;html=1;aspect=fixed;fillColor=#f5f5f5;fontColor=#333333;strokeColor=#666666;" vertex="1" parent="n5Q3YU20H20i3xik1-xb-72">
          <mxGeometry x="20" width="20" height="20" as="geometry" />
        </mxCell>
        <mxCell id="n5Q3YU20H20i3xik1-xb-75" value="2" style="whiteSpace=wrap;html=1;aspect=fixed;fillColor=#dae8fc;strokeColor=#6c8ebf;" vertex="1" parent="n5Q3YU20H20i3xik1-xb-72">
          <mxGeometry x="40" width="20" height="20" as="geometry" />
        </mxCell>
        <mxCell id="n5Q3YU20H20i3xik1-xb-76" value="2" style="whiteSpace=wrap;html=1;aspect=fixed;fillColor=#dae8fc;strokeColor=#6c8ebf;" vertex="1" parent="n5Q3YU20H20i3xik1-xb-72">
          <mxGeometry x="60" width="20" height="20" as="geometry" />
        </mxCell>
        <mxCell id="n5Q3YU20H20i3xik1-xb-83" value="" style="group" vertex="1" connectable="0" parent="1">
          <mxGeometry x="160" y="240" width="80" height="20" as="geometry" />
        </mxCell>
        <mxCell id="n5Q3YU20H20i3xik1-xb-84" value="2" style="whiteSpace=wrap;html=1;aspect=fixed;fillColor=#f5f5f5;fontColor=#333333;strokeColor=#666666;" vertex="1" parent="n5Q3YU20H20i3xik1-xb-83">
          <mxGeometry width="20" height="20" as="geometry" />
        </mxCell>
        <mxCell id="n5Q3YU20H20i3xik1-xb-85" value="2" style="whiteSpace=wrap;html=1;aspect=fixed;fillColor=#dae8fc;strokeColor=#6c8ebf;" vertex="1" parent="n5Q3YU20H20i3xik1-xb-83">
          <mxGeometry x="20" width="20" height="20" as="geometry" />
        </mxCell>
        <mxCell id="n5Q3YU20H20i3xik1-xb-86" value="2" style="whiteSpace=wrap;html=1;aspect=fixed;fillColor=#dae8fc;strokeColor=#6c8ebf;" vertex="1" parent="n5Q3YU20H20i3xik1-xb-83">
          <mxGeometry x="40" width="20" height="20" as="geometry" />
        </mxCell>
        <mxCell id="n5Q3YU20H20i3xik1-xb-87" value="2" style="whiteSpace=wrap;html=1;aspect=fixed;fillColor=#dae8fc;strokeColor=#6c8ebf;" vertex="1" parent="n5Q3YU20H20i3xik1-xb-83">
          <mxGeometry x="60" width="20" height="20" as="geometry" />
        </mxCell>
        <mxCell id="n5Q3YU20H20i3xik1-xb-105" value="" style="group" vertex="1" connectable="0" parent="1">
          <mxGeometry x="180" y="340" width="80" height="20" as="geometry" />
        </mxCell>
        <mxCell id="n5Q3YU20H20i3xik1-xb-106" value="2" style="whiteSpace=wrap;html=1;aspect=fixed;fillColor=#dae8fc;strokeColor=#6c8ebf;" vertex="1" parent="n5Q3YU20H20i3xik1-xb-105">
          <mxGeometry width="20" height="20" as="geometry" />
        </mxCell>
        <mxCell id="n5Q3YU20H20i3xik1-xb-107" value="2" style="whiteSpace=wrap;html=1;aspect=fixed;fillColor=#dae8fc;strokeColor=#6c8ebf;" vertex="1" parent="n5Q3YU20H20i3xik1-xb-105">
          <mxGeometry x="20" width="20" height="20" as="geometry" />
        </mxCell>
        <mxCell id="n5Q3YU20H20i3xik1-xb-108" value="2" style="whiteSpace=wrap;html=1;aspect=fixed;fillColor=#dae8fc;strokeColor=#6c8ebf;" vertex="1" parent="n5Q3YU20H20i3xik1-xb-105">
          <mxGeometry x="40" width="20" height="20" as="geometry" />
        </mxCell>
        <mxCell id="n5Q3YU20H20i3xik1-xb-109" value="2" style="whiteSpace=wrap;html=1;aspect=fixed;fillColor=#dae8fc;strokeColor=#6c8ebf;" vertex="1" parent="n5Q3YU20H20i3xik1-xb-105">
          <mxGeometry x="60" width="20" height="20" as="geometry" />
        </mxCell>
        <mxCell id="n5Q3YU20H20i3xik1-xb-117" value="" style="group;fillColor=#dae8fc;strokeColor=#6c8ebf;" vertex="1" connectable="0" parent="1">
          <mxGeometry x="200" y="390" width="80" height="20" as="geometry" />
        </mxCell>
        <mxCell id="n5Q3YU20H20i3xik1-xb-118" value="2" style="whiteSpace=wrap;html=1;aspect=fixed;fillColor=#dae8fc;strokeColor=#6c8ebf;" vertex="1" parent="n5Q3YU20H20i3xik1-xb-117">
          <mxGeometry width="20" height="20" as="geometry" />
        </mxCell>
        <mxCell id="n5Q3YU20H20i3xik1-xb-119" value="2" style="whiteSpace=wrap;html=1;aspect=fixed;fillColor=#dae8fc;strokeColor=#6c8ebf;" vertex="1" parent="n5Q3YU20H20i3xik1-xb-117">
          <mxGeometry x="20" width="20" height="20" as="geometry" />
        </mxCell>
        <mxCell id="n5Q3YU20H20i3xik1-xb-120" value="2" style="whiteSpace=wrap;html=1;aspect=fixed;fillColor=#dae8fc;strokeColor=#6c8ebf;" vertex="1" parent="n5Q3YU20H20i3xik1-xb-117">
          <mxGeometry x="40" width="20" height="20" as="geometry" />
        </mxCell>
        <mxCell id="n5Q3YU20H20i3xik1-xb-121" value="2" style="whiteSpace=wrap;html=1;aspect=fixed;fillColor=#f5f5f5;fontColor=#333333;strokeColor=#666666;" vertex="1" parent="n5Q3YU20H20i3xik1-xb-117">
          <mxGeometry x="60" width="20" height="20" as="geometry" />
        </mxCell>
        <mxCell id="n5Q3YU20H20i3xik1-xb-128" value="" style="group" vertex="1" connectable="0" parent="1">
          <mxGeometry x="220" y="440" width="80" height="20" as="geometry" />
        </mxCell>
        <mxCell id="n5Q3YU20H20i3xik1-xb-129" value="2" style="whiteSpace=wrap;html=1;aspect=fixed;fillColor=#dae8fc;strokeColor=#6c8ebf;" vertex="1" parent="n5Q3YU20H20i3xik1-xb-128">
          <mxGeometry width="20" height="20" as="geometry" />
        </mxCell>
        <mxCell id="n5Q3YU20H20i3xik1-xb-130" value="2" style="whiteSpace=wrap;html=1;aspect=fixed;fillColor=#dae8fc;strokeColor=#6c8ebf;" vertex="1" parent="n5Q3YU20H20i3xik1-xb-128">
          <mxGeometry x="20" width="20" height="20" as="geometry" />
        </mxCell>
        <mxCell id="n5Q3YU20H20i3xik1-xb-131" value="2" style="whiteSpace=wrap;html=1;aspect=fixed;fillColor=#f5f5f5;fontColor=#333333;strokeColor=#666666;" vertex="1" parent="n5Q3YU20H20i3xik1-xb-128">
          <mxGeometry x="40" width="20" height="20" as="geometry" />
        </mxCell>
        <mxCell id="n5Q3YU20H20i3xik1-xb-132" value="2" style="whiteSpace=wrap;html=1;aspect=fixed;fillColor=#f5f5f5;fontColor=#333333;strokeColor=#666666;" vertex="1" parent="n5Q3YU20H20i3xik1-xb-128">
          <mxGeometry x="60" width="20" height="20" as="geometry" />
        </mxCell>
        <mxCell id="n5Q3YU20H20i3xik1-xb-139" value="" style="group" vertex="1" connectable="0" parent="1">
          <mxGeometry x="240" y="490" width="80" height="20" as="geometry" />
        </mxCell>
        <mxCell id="n5Q3YU20H20i3xik1-xb-140" value="2" style="whiteSpace=wrap;html=1;aspect=fixed;fillColor=#dae8fc;strokeColor=#6c8ebf;" vertex="1" parent="n5Q3YU20H20i3xik1-xb-139">
          <mxGeometry width="20" height="20" as="geometry" />
        </mxCell>
        <mxCell id="n5Q3YU20H20i3xik1-xb-141" value="2" style="whiteSpace=wrap;html=1;aspect=fixed;fillColor=#f5f5f5;fontColor=#333333;strokeColor=#666666;" vertex="1" parent="n5Q3YU20H20i3xik1-xb-139">
          <mxGeometry x="20" width="20" height="20" as="geometry" />
        </mxCell>
        <mxCell id="n5Q3YU20H20i3xik1-xb-142" value="2" style="whiteSpace=wrap;html=1;aspect=fixed;fillColor=#f5f5f5;fontColor=#333333;strokeColor=#666666;" vertex="1" parent="n5Q3YU20H20i3xik1-xb-139">
          <mxGeometry x="40" width="20" height="20" as="geometry" />
        </mxCell>
        <mxCell id="n5Q3YU20H20i3xik1-xb-143" value="2" style="whiteSpace=wrap;html=1;aspect=fixed;fillColor=#f5f5f5;fontColor=#333333;strokeColor=#666666;" vertex="1" parent="n5Q3YU20H20i3xik1-xb-139">
          <mxGeometry x="60" width="20" height="20" as="geometry" />
        </mxCell>
        <mxCell id="n5Q3YU20H20i3xik1-xb-151" value="Output" style="text;html=1;strokeColor=none;fillColor=none;align=center;verticalAlign=middle;whiteSpace=wrap;rounded=0;" vertex="1" parent="1">
          <mxGeometry x="120" y="90" width="40" height="30" as="geometry" />
        </mxCell>
        <mxCell id="n5Q3YU20H20i3xik1-xb-153" value="" style="group;fillColor=#dae8fc;strokeColor=#6c8ebf;" vertex="1" connectable="0" parent="1">
          <mxGeometry x="200" y="170" width="100" height="20" as="geometry" />
        </mxCell>
        <mxCell id="n5Q3YU20H20i3xik1-xb-154" value="1" style="whiteSpace=wrap;html=1;aspect=fixed;container=0;fillColor=#dae8fc;strokeColor=#6c8ebf;" vertex="1" parent="n5Q3YU20H20i3xik1-xb-153">
          <mxGeometry width="20" height="20" as="geometry" />
        </mxCell>
        <mxCell id="n5Q3YU20H20i3xik1-xb-155" value="1" style="whiteSpace=wrap;html=1;aspect=fixed;container=0;fillColor=#dae8fc;strokeColor=#6c8ebf;" vertex="1" parent="n5Q3YU20H20i3xik1-xb-153">
          <mxGeometry x="20" width="20" height="20" as="geometry" />
        </mxCell>
        <mxCell id="n5Q3YU20H20i3xik1-xb-156" value="1" style="whiteSpace=wrap;html=1;aspect=fixed;container=0;fillColor=#f5f5f5;strokeColor=#666666;fontColor=#333333;" vertex="1" parent="n5Q3YU20H20i3xik1-xb-153">
          <mxGeometry x="40" width="20" height="20" as="geometry" />
        </mxCell>
        <mxCell id="n5Q3YU20H20i3xik1-xb-157" value="1" style="whiteSpace=wrap;html=1;aspect=fixed;container=0;fillColor=#f5f5f5;strokeColor=#666666;fontColor=#333333;" vertex="1" parent="n5Q3YU20H20i3xik1-xb-153">
          <mxGeometry x="60" width="20" height="20" as="geometry" />
        </mxCell>
        <mxCell id="n5Q3YU20H20i3xik1-xb-158" value="1" style="whiteSpace=wrap;html=1;aspect=fixed;container=0;fillColor=#f5f5f5;strokeColor=#666666;fontColor=#333333;" vertex="1" parent="n5Q3YU20H20i3xik1-xb-153">
          <mxGeometry x="80" width="20" height="20" as="geometry" />
        </mxCell>
        <mxCell id="n5Q3YU20H20i3xik1-xb-160" value="" style="group;fillColor=#dae8fc;strokeColor=#6c8ebf;" vertex="1" connectable="0" parent="1">
          <mxGeometry x="180" y="220" width="100" height="20" as="geometry" />
        </mxCell>
        <mxCell id="n5Q3YU20H20i3xik1-xb-161" value="1" style="whiteSpace=wrap;html=1;aspect=fixed;container=0;fillColor=#dae8fc;strokeColor=#6c8ebf;" vertex="1" parent="n5Q3YU20H20i3xik1-xb-160">
          <mxGeometry width="20" height="20" as="geometry" />
        </mxCell>
        <mxCell id="n5Q3YU20H20i3xik1-xb-162" value="1" style="whiteSpace=wrap;html=1;aspect=fixed;container=0;fillColor=#dae8fc;strokeColor=#6c8ebf;" vertex="1" parent="n5Q3YU20H20i3xik1-xb-160">
          <mxGeometry x="20" width="20" height="20" as="geometry" />
        </mxCell>
        <mxCell id="n5Q3YU20H20i3xik1-xb-163" value="1" style="whiteSpace=wrap;html=1;aspect=fixed;container=0;fillColor=#dae8fc;strokeColor=#6c8ebf;" vertex="1" parent="n5Q3YU20H20i3xik1-xb-160">
          <mxGeometry x="40" width="20" height="20" as="geometry" />
        </mxCell>
        <mxCell id="n5Q3YU20H20i3xik1-xb-164" value="1" style="whiteSpace=wrap;html=1;aspect=fixed;container=0;fillColor=#f5f5f5;strokeColor=#666666;fontColor=#333333;" vertex="1" parent="n5Q3YU20H20i3xik1-xb-160">
          <mxGeometry x="60" width="20" height="20" as="geometry" />
        </mxCell>
        <mxCell id="n5Q3YU20H20i3xik1-xb-165" value="1" style="whiteSpace=wrap;html=1;aspect=fixed;container=0;fillColor=#f5f5f5;strokeColor=#666666;fontColor=#333333;" vertex="1" parent="n5Q3YU20H20i3xik1-xb-160">
          <mxGeometry x="80" width="20" height="20" as="geometry" />
        </mxCell>
        <mxCell id="n5Q3YU20H20i3xik1-xb-166" value="" style="group;fillColor=#dae8fc;strokeColor=#6c8ebf;" vertex="1" connectable="0" parent="1">
          <mxGeometry x="160" y="270" width="100" height="20" as="geometry" />
        </mxCell>
        <mxCell id="n5Q3YU20H20i3xik1-xb-167" value="1" style="whiteSpace=wrap;html=1;aspect=fixed;container=0;fillColor=#dae8fc;strokeColor=#6c8ebf;" vertex="1" parent="n5Q3YU20H20i3xik1-xb-166">
          <mxGeometry width="20" height="20" as="geometry" />
        </mxCell>
        <mxCell id="n5Q3YU20H20i3xik1-xb-168" value="1" style="whiteSpace=wrap;html=1;aspect=fixed;container=0;fillColor=#dae8fc;strokeColor=#6c8ebf;" vertex="1" parent="n5Q3YU20H20i3xik1-xb-166">
          <mxGeometry x="20" width="20" height="20" as="geometry" />
        </mxCell>
        <mxCell id="n5Q3YU20H20i3xik1-xb-169" value="1" style="whiteSpace=wrap;html=1;aspect=fixed;container=0;fillColor=#dae8fc;strokeColor=#6c8ebf;" vertex="1" parent="n5Q3YU20H20i3xik1-xb-166">
          <mxGeometry x="40" width="20" height="20" as="geometry" />
        </mxCell>
        <mxCell id="n5Q3YU20H20i3xik1-xb-170" value="1" style="whiteSpace=wrap;html=1;aspect=fixed;container=0;fillColor=#dae8fc;strokeColor=#6c8ebf;" vertex="1" parent="n5Q3YU20H20i3xik1-xb-166">
          <mxGeometry x="60" width="20" height="20" as="geometry" />
        </mxCell>
        <mxCell id="n5Q3YU20H20i3xik1-xb-171" value="1" style="whiteSpace=wrap;html=1;aspect=fixed;container=0;fillColor=#f5f5f5;strokeColor=#666666;fontColor=#333333;" vertex="1" parent="n5Q3YU20H20i3xik1-xb-166">
          <mxGeometry x="80" width="20" height="20" as="geometry" />
        </mxCell>
        <mxCell id="n5Q3YU20H20i3xik1-xb-172" value="" style="group;fillColor=#dae8fc;strokeColor=#6c8ebf;" vertex="1" connectable="0" parent="1">
          <mxGeometry x="160" y="320" width="100" height="20" as="geometry" />
        </mxCell>
        <mxCell id="n5Q3YU20H20i3xik1-xb-173" value="1" style="whiteSpace=wrap;html=1;aspect=fixed;container=0;fillColor=#f5f5f5;strokeColor=#666666;fontColor=#333333;" vertex="1" parent="n5Q3YU20H20i3xik1-xb-172">
          <mxGeometry width="20" height="20" as="geometry" />
        </mxCell>
        <mxCell id="n5Q3YU20H20i3xik1-xb-174" value="1" style="whiteSpace=wrap;html=1;aspect=fixed;container=0;fillColor=#dae8fc;strokeColor=#6c8ebf;" vertex="1" parent="n5Q3YU20H20i3xik1-xb-172">
          <mxGeometry x="20" width="20" height="20" as="geometry" />
        </mxCell>
        <mxCell id="n5Q3YU20H20i3xik1-xb-175" value="1" style="whiteSpace=wrap;html=1;aspect=fixed;container=0;fillColor=#dae8fc;strokeColor=#6c8ebf;" vertex="1" parent="n5Q3YU20H20i3xik1-xb-172">
          <mxGeometry x="40" width="20" height="20" as="geometry" />
        </mxCell>
        <mxCell id="n5Q3YU20H20i3xik1-xb-176" value="1" style="whiteSpace=wrap;html=1;aspect=fixed;container=0;fillColor=#dae8fc;strokeColor=#6c8ebf;" vertex="1" parent="n5Q3YU20H20i3xik1-xb-172">
          <mxGeometry x="60" width="20" height="20" as="geometry" />
        </mxCell>
        <mxCell id="n5Q3YU20H20i3xik1-xb-177" value="1" style="whiteSpace=wrap;html=1;aspect=fixed;container=0;fillColor=#dae8fc;strokeColor=#6c8ebf;" vertex="1" parent="n5Q3YU20H20i3xik1-xb-172">
          <mxGeometry x="80" width="20" height="20" as="geometry" />
        </mxCell>
        <mxCell id="n5Q3YU20H20i3xik1-xb-178" value="" style="group;fillColor=#dae8fc;strokeColor=#6c8ebf;" vertex="1" connectable="0" parent="1">
          <mxGeometry x="160" y="370" width="100" height="20" as="geometry" />
        </mxCell>
        <mxCell id="n5Q3YU20H20i3xik1-xb-179" value="1" style="whiteSpace=wrap;html=1;aspect=fixed;container=0;fillColor=#f5f5f5;strokeColor=#666666;fontColor=#333333;" vertex="1" parent="n5Q3YU20H20i3xik1-xb-178">
          <mxGeometry width="20" height="20" as="geometry" />
        </mxCell>
        <mxCell id="n5Q3YU20H20i3xik1-xb-180" value="1" style="whiteSpace=wrap;html=1;aspect=fixed;container=0;fillColor=#f5f5f5;strokeColor=#666666;fontColor=#333333;" vertex="1" parent="n5Q3YU20H20i3xik1-xb-178">
          <mxGeometry x="20" width="20" height="20" as="geometry" />
        </mxCell>
        <mxCell id="n5Q3YU20H20i3xik1-xb-181" value="1" style="whiteSpace=wrap;html=1;aspect=fixed;container=0;fillColor=#dae8fc;strokeColor=#6c8ebf;" vertex="1" parent="n5Q3YU20H20i3xik1-xb-178">
          <mxGeometry x="40" width="20" height="20" as="geometry" />
        </mxCell>
        <mxCell id="n5Q3YU20H20i3xik1-xb-182" value="1" style="whiteSpace=wrap;html=1;aspect=fixed;container=0;fillColor=#dae8fc;strokeColor=#6c8ebf;" vertex="1" parent="n5Q3YU20H20i3xik1-xb-178">
          <mxGeometry x="60" width="20" height="20" as="geometry" />
        </mxCell>
        <mxCell id="n5Q3YU20H20i3xik1-xb-183" value="1" style="whiteSpace=wrap;html=1;aspect=fixed;container=0;fillColor=#dae8fc;strokeColor=#6c8ebf;" vertex="1" parent="n5Q3YU20H20i3xik1-xb-178">
          <mxGeometry x="80" width="20" height="20" as="geometry" />
        </mxCell>
        <mxCell id="n5Q3YU20H20i3xik1-xb-184" value="" style="group;fillColor=#dae8fc;strokeColor=#6c8ebf;" vertex="1" connectable="0" parent="1">
          <mxGeometry x="160" y="470" width="100" height="20" as="geometry" />
        </mxCell>
        <mxCell id="n5Q3YU20H20i3xik1-xb-185" value="1" style="whiteSpace=wrap;html=1;aspect=fixed;container=0;fillColor=#f5f5f5;strokeColor=#666666;fontColor=#333333;" vertex="1" parent="n5Q3YU20H20i3xik1-xb-184">
          <mxGeometry width="20" height="20" as="geometry" />
        </mxCell>
        <mxCell id="n5Q3YU20H20i3xik1-xb-186" value="1" style="whiteSpace=wrap;html=1;aspect=fixed;container=0;fillColor=#f5f5f5;strokeColor=#666666;fontColor=#333333;" vertex="1" parent="n5Q3YU20H20i3xik1-xb-184">
          <mxGeometry x="20" width="20" height="20" as="geometry" />
        </mxCell>
        <mxCell id="n5Q3YU20H20i3xik1-xb-187" value="1" style="whiteSpace=wrap;html=1;aspect=fixed;container=0;fillColor=#f5f5f5;strokeColor=#666666;fontColor=#333333;" vertex="1" parent="n5Q3YU20H20i3xik1-xb-184">
          <mxGeometry x="40" width="20" height="20" as="geometry" />
        </mxCell>
        <mxCell id="n5Q3YU20H20i3xik1-xb-188" value="1" style="whiteSpace=wrap;html=1;aspect=fixed;container=0;fillColor=#f5f5f5;strokeColor=#666666;fontColor=#333333;" vertex="1" parent="n5Q3YU20H20i3xik1-xb-184">
          <mxGeometry x="60" width="20" height="20" as="geometry" />
        </mxCell>
        <mxCell id="n5Q3YU20H20i3xik1-xb-189" value="1" style="whiteSpace=wrap;html=1;aspect=fixed;container=0;fillColor=#dae8fc;strokeColor=#6c8ebf;" vertex="1" parent="n5Q3YU20H20i3xik1-xb-184">
          <mxGeometry x="80" width="20" height="20" as="geometry" />
        </mxCell>
        <mxCell id="n5Q3YU20H20i3xik1-xb-202" value="" style="group;fillColor=#dae8fc;strokeColor=#6c8ebf;" vertex="1" connectable="0" parent="1">
          <mxGeometry x="160" y="420" width="100" height="20" as="geometry" />
        </mxCell>
        <mxCell id="n5Q3YU20H20i3xik1-xb-203" value="1" style="whiteSpace=wrap;html=1;aspect=fixed;container=0;fillColor=#f5f5f5;strokeColor=#666666;fontColor=#333333;" vertex="1" parent="n5Q3YU20H20i3xik1-xb-202">
          <mxGeometry width="20" height="20" as="geometry" />
        </mxCell>
        <mxCell id="n5Q3YU20H20i3xik1-xb-204" value="1" style="whiteSpace=wrap;html=1;aspect=fixed;container=0;fillColor=#f5f5f5;strokeColor=#666666;fontColor=#333333;" vertex="1" parent="n5Q3YU20H20i3xik1-xb-202">
          <mxGeometry x="20" width="20" height="20" as="geometry" />
        </mxCell>
        <mxCell id="n5Q3YU20H20i3xik1-xb-205" value="1" style="whiteSpace=wrap;html=1;aspect=fixed;container=0;fillColor=#f5f5f5;strokeColor=#666666;fontColor=#333333;" vertex="1" parent="n5Q3YU20H20i3xik1-xb-202">
          <mxGeometry x="40" width="20" height="20" as="geometry" />
        </mxCell>
        <mxCell id="n5Q3YU20H20i3xik1-xb-206" value="1" style="whiteSpace=wrap;html=1;aspect=fixed;container=0;fillColor=#dae8fc;strokeColor=#6c8ebf;" vertex="1" parent="n5Q3YU20H20i3xik1-xb-202">
          <mxGeometry x="60" width="20" height="20" as="geometry" />
        </mxCell>
        <mxCell id="n5Q3YU20H20i3xik1-xb-207" value="1" style="whiteSpace=wrap;html=1;aspect=fixed;container=0;fillColor=#dae8fc;strokeColor=#6c8ebf;" vertex="1" parent="n5Q3YU20H20i3xik1-xb-202">
          <mxGeometry x="80" width="20" height="20" as="geometry" />
        </mxCell>
        <mxCell id="n5Q3YU20H20i3xik1-xb-208" value="" style="group" vertex="1" connectable="0" parent="1">
          <mxGeometry x="160" y="290" width="80" height="20" as="geometry" />
        </mxCell>
        <mxCell id="n5Q3YU20H20i3xik1-xb-209" value="2" style="whiteSpace=wrap;html=1;aspect=fixed;fillColor=#dae8fc;strokeColor=#6c8ebf;" vertex="1" parent="n5Q3YU20H20i3xik1-xb-208">
          <mxGeometry width="20" height="20" as="geometry" />
        </mxCell>
        <mxCell id="n5Q3YU20H20i3xik1-xb-210" value="2" style="whiteSpace=wrap;html=1;aspect=fixed;fillColor=#dae8fc;strokeColor=#6c8ebf;" vertex="1" parent="n5Q3YU20H20i3xik1-xb-208">
          <mxGeometry x="20" width="20" height="20" as="geometry" />
        </mxCell>
        <mxCell id="n5Q3YU20H20i3xik1-xb-211" value="2" style="whiteSpace=wrap;html=1;aspect=fixed;fillColor=#dae8fc;strokeColor=#6c8ebf;" vertex="1" parent="n5Q3YU20H20i3xik1-xb-208">
          <mxGeometry x="40" width="20" height="20" as="geometry" />
        </mxCell>
        <mxCell id="n5Q3YU20H20i3xik1-xb-212" value="2" style="whiteSpace=wrap;html=1;aspect=fixed;fillColor=#dae8fc;strokeColor=#6c8ebf;" vertex="1" parent="n5Q3YU20H20i3xik1-xb-208">
          <mxGeometry x="60" width="20" height="20" as="geometry" />
        </mxCell>
        <mxCell id="n5Q3YU20H20i3xik1-xb-217" value="Mode: &lt;b&gt;full&lt;/b&gt;" style="text;html=1;strokeColor=none;fillColor=none;align=center;verticalAlign=middle;whiteSpace=wrap;rounded=0;" vertex="1" parent="1">
          <mxGeometry x="160" y="90" width="160" height="30" as="geometry" />
        </mxCell>
        <mxCell id="n5Q3YU20H20i3xik1-xb-221" value="8" style="whiteSpace=wrap;html=1;aspect=fixed;fillColor=#dae8fc;strokeColor=#6c8ebf;" vertex="1" parent="1">
          <mxGeometry x="340" y="120" width="40" height="40" as="geometry" />
        </mxCell>
        <mxCell id="n5Q3YU20H20i3xik1-xb-222" value="8" style="whiteSpace=wrap;html=1;aspect=fixed;fillColor=#dae8fc;strokeColor=#6c8ebf;" vertex="1" parent="1">
          <mxGeometry x="340" y="170" width="40" height="40" as="geometry" />
        </mxCell>
        <mxCell id="n5Q3YU20H20i3xik1-xb-247" value="" style="group" vertex="1" connectable="0" parent="1">
          <mxGeometry x="400" y="190" width="80" height="20" as="geometry" />
        </mxCell>
        <mxCell id="n5Q3YU20H20i3xik1-xb-248" value="2" style="whiteSpace=wrap;html=1;aspect=fixed;fillColor=#dae8fc;strokeColor=#6c8ebf;" vertex="1" parent="n5Q3YU20H20i3xik1-xb-247">
          <mxGeometry width="20" height="20" as="geometry" />
        </mxCell>
        <mxCell id="n5Q3YU20H20i3xik1-xb-249" value="2" style="whiteSpace=wrap;html=1;aspect=fixed;fillColor=#dae8fc;strokeColor=#6c8ebf;" vertex="1" parent="n5Q3YU20H20i3xik1-xb-247">
          <mxGeometry x="20" width="20" height="20" as="geometry" />
        </mxCell>
        <mxCell id="n5Q3YU20H20i3xik1-xb-250" value="2" style="whiteSpace=wrap;html=1;aspect=fixed;fillColor=#dae8fc;strokeColor=#6c8ebf;" vertex="1" parent="n5Q3YU20H20i3xik1-xb-247">
          <mxGeometry x="40" width="20" height="20" as="geometry" />
        </mxCell>
        <mxCell id="n5Q3YU20H20i3xik1-xb-251" value="2" style="whiteSpace=wrap;html=1;aspect=fixed;fillColor=#dae8fc;strokeColor=#6c8ebf;" vertex="1" parent="n5Q3YU20H20i3xik1-xb-247">
          <mxGeometry x="60" width="20" height="20" as="geometry" />
        </mxCell>
        <mxCell id="n5Q3YU20H20i3xik1-xb-267" value="Output" style="text;html=1;strokeColor=none;fillColor=none;align=center;verticalAlign=middle;whiteSpace=wrap;rounded=0;" vertex="1" parent="1">
          <mxGeometry x="340" y="90" width="40" height="30" as="geometry" />
        </mxCell>
        <mxCell id="n5Q3YU20H20i3xik1-xb-280" value="" style="group;fillColor=#dae8fc;strokeColor=#6c8ebf;" vertex="1" connectable="0" parent="1">
          <mxGeometry x="380" y="120" width="100" height="20" as="geometry" />
        </mxCell>
        <mxCell id="n5Q3YU20H20i3xik1-xb-281" value="1" style="whiteSpace=wrap;html=1;aspect=fixed;container=0;fillColor=#dae8fc;strokeColor=#6c8ebf;" vertex="1" parent="n5Q3YU20H20i3xik1-xb-280">
          <mxGeometry width="20" height="20" as="geometry" />
        </mxCell>
        <mxCell id="n5Q3YU20H20i3xik1-xb-282" value="1" style="whiteSpace=wrap;html=1;aspect=fixed;container=0;fillColor=#dae8fc;strokeColor=#6c8ebf;" vertex="1" parent="n5Q3YU20H20i3xik1-xb-280">
          <mxGeometry x="20" width="20" height="20" as="geometry" />
        </mxCell>
        <mxCell id="n5Q3YU20H20i3xik1-xb-283" value="1" style="whiteSpace=wrap;html=1;aspect=fixed;container=0;fillColor=#dae8fc;strokeColor=#6c8ebf;" vertex="1" parent="n5Q3YU20H20i3xik1-xb-280">
          <mxGeometry x="40" width="20" height="20" as="geometry" />
        </mxCell>
        <mxCell id="n5Q3YU20H20i3xik1-xb-284" value="1" style="whiteSpace=wrap;html=1;aspect=fixed;container=0;fillColor=#dae8fc;strokeColor=#6c8ebf;" vertex="1" parent="n5Q3YU20H20i3xik1-xb-280">
          <mxGeometry x="60" width="20" height="20" as="geometry" />
        </mxCell>
        <mxCell id="n5Q3YU20H20i3xik1-xb-285" value="1" style="whiteSpace=wrap;html=1;aspect=fixed;container=0;fillColor=#f5f5f5;strokeColor=#666666;fontColor=#333333;" vertex="1" parent="n5Q3YU20H20i3xik1-xb-280">
          <mxGeometry x="80" width="20" height="20" as="geometry" />
        </mxCell>
        <mxCell id="n5Q3YU20H20i3xik1-xb-286" value="" style="group;fillColor=#dae8fc;strokeColor=#6c8ebf;" vertex="1" connectable="0" parent="1">
          <mxGeometry x="380" y="170" width="100" height="20" as="geometry" />
        </mxCell>
        <mxCell id="n5Q3YU20H20i3xik1-xb-287" value="1" style="whiteSpace=wrap;html=1;aspect=fixed;container=0;fillColor=#f5f5f5;strokeColor=#666666;fontColor=#333333;" vertex="1" parent="n5Q3YU20H20i3xik1-xb-286">
          <mxGeometry width="20" height="20" as="geometry" />
        </mxCell>
        <mxCell id="n5Q3YU20H20i3xik1-xb-288" value="1" style="whiteSpace=wrap;html=1;aspect=fixed;container=0;fillColor=#dae8fc;strokeColor=#6c8ebf;" vertex="1" parent="n5Q3YU20H20i3xik1-xb-286">
          <mxGeometry x="20" width="20" height="20" as="geometry" />
        </mxCell>
        <mxCell id="n5Q3YU20H20i3xik1-xb-289" value="1" style="whiteSpace=wrap;html=1;aspect=fixed;container=0;fillColor=#dae8fc;strokeColor=#6c8ebf;" vertex="1" parent="n5Q3YU20H20i3xik1-xb-286">
          <mxGeometry x="40" width="20" height="20" as="geometry" />
        </mxCell>
        <mxCell id="n5Q3YU20H20i3xik1-xb-290" value="1" style="whiteSpace=wrap;html=1;aspect=fixed;container=0;fillColor=#dae8fc;strokeColor=#6c8ebf;" vertex="1" parent="n5Q3YU20H20i3xik1-xb-286">
          <mxGeometry x="60" width="20" height="20" as="geometry" />
        </mxCell>
        <mxCell id="n5Q3YU20H20i3xik1-xb-291" value="1" style="whiteSpace=wrap;html=1;aspect=fixed;container=0;fillColor=#dae8fc;strokeColor=#6c8ebf;" vertex="1" parent="n5Q3YU20H20i3xik1-xb-286">
          <mxGeometry x="80" width="20" height="20" as="geometry" />
        </mxCell>
        <mxCell id="n5Q3YU20H20i3xik1-xb-310" value="" style="group" vertex="1" connectable="0" parent="1">
          <mxGeometry x="380" y="140" width="80" height="20" as="geometry" />
        </mxCell>
        <mxCell id="n5Q3YU20H20i3xik1-xb-311" value="2" style="whiteSpace=wrap;html=1;aspect=fixed;fillColor=#dae8fc;strokeColor=#6c8ebf;" vertex="1" parent="n5Q3YU20H20i3xik1-xb-310">
          <mxGeometry width="20" height="20" as="geometry" />
        </mxCell>
        <mxCell id="n5Q3YU20H20i3xik1-xb-312" value="2" style="whiteSpace=wrap;html=1;aspect=fixed;fillColor=#dae8fc;strokeColor=#6c8ebf;" vertex="1" parent="n5Q3YU20H20i3xik1-xb-310">
          <mxGeometry x="20" width="20" height="20" as="geometry" />
        </mxCell>
        <mxCell id="n5Q3YU20H20i3xik1-xb-313" value="2" style="whiteSpace=wrap;html=1;aspect=fixed;fillColor=#dae8fc;strokeColor=#6c8ebf;" vertex="1" parent="n5Q3YU20H20i3xik1-xb-310">
          <mxGeometry x="40" width="20" height="20" as="geometry" />
        </mxCell>
        <mxCell id="n5Q3YU20H20i3xik1-xb-314" value="2" style="whiteSpace=wrap;html=1;aspect=fixed;fillColor=#dae8fc;strokeColor=#6c8ebf;" vertex="1" parent="n5Q3YU20H20i3xik1-xb-310">
          <mxGeometry x="60" width="20" height="20" as="geometry" />
        </mxCell>
        <mxCell id="n5Q3YU20H20i3xik1-xb-315" value="Mode: &lt;b&gt;valid&lt;/b&gt;" style="text;html=1;strokeColor=none;fillColor=none;align=center;verticalAlign=middle;whiteSpace=wrap;rounded=0;" vertex="1" parent="1">
          <mxGeometry x="380" y="90" width="100" height="30" as="geometry" />
        </mxCell>
        <mxCell id="n5Q3YU20H20i3xik1-xb-317" value="4" style="whiteSpace=wrap;html=1;aspect=fixed;fillColor=#dae8fc;strokeColor=#6c8ebf;" vertex="1" parent="1">
          <mxGeometry x="500" y="120" width="40" height="40" as="geometry" />
        </mxCell>
        <mxCell id="n5Q3YU20H20i3xik1-xb-318" value="6" style="whiteSpace=wrap;html=1;aspect=fixed;fillColor=#dae8fc;strokeColor=#6c8ebf;" vertex="1" parent="1">
          <mxGeometry x="500" y="170" width="40" height="40" as="geometry" />
        </mxCell>
        <mxCell id="n5Q3YU20H20i3xik1-xb-319" value="8" style="whiteSpace=wrap;html=1;aspect=fixed;fillColor=#dae8fc;strokeColor=#6c8ebf;" vertex="1" parent="1">
          <mxGeometry x="500" y="220" width="40" height="40" as="geometry" />
        </mxCell>
        <mxCell id="n5Q3YU20H20i3xik1-xb-320" value="8" style="whiteSpace=wrap;html=1;aspect=fixed;fillColor=#dae8fc;strokeColor=#6c8ebf;" vertex="1" parent="1">
          <mxGeometry x="500" y="270" width="40" height="40" as="geometry" />
        </mxCell>
        <mxCell id="n5Q3YU20H20i3xik1-xb-321" value="6" style="whiteSpace=wrap;html=1;aspect=fixed;fillColor=#dae8fc;strokeColor=#6c8ebf;" vertex="1" parent="1">
          <mxGeometry x="500" y="320" width="40" height="40" as="geometry" />
        </mxCell>
        <mxCell id="n5Q3YU20H20i3xik1-xb-335" value="" style="group" vertex="1" connectable="0" parent="1">
          <mxGeometry x="540" y="140" width="80" height="20" as="geometry" />
        </mxCell>
        <mxCell id="n5Q3YU20H20i3xik1-xb-336" value="2" style="whiteSpace=wrap;html=1;aspect=fixed;fillColor=#f5f5f5;fontColor=#333333;strokeColor=#666666;" vertex="1" parent="n5Q3YU20H20i3xik1-xb-335">
          <mxGeometry width="20" height="20" as="geometry" />
        </mxCell>
        <mxCell id="n5Q3YU20H20i3xik1-xb-337" value="2" style="whiteSpace=wrap;html=1;aspect=fixed;fillColor=#f5f5f5;fontColor=#333333;strokeColor=#666666;" vertex="1" parent="n5Q3YU20H20i3xik1-xb-335">
          <mxGeometry x="20" width="20" height="20" as="geometry" />
        </mxCell>
        <mxCell id="n5Q3YU20H20i3xik1-xb-338" value="2" style="whiteSpace=wrap;html=1;aspect=fixed;fillColor=#dae8fc;strokeColor=#6c8ebf;" vertex="1" parent="n5Q3YU20H20i3xik1-xb-335">
          <mxGeometry x="40" width="20" height="20" as="geometry" />
        </mxCell>
        <mxCell id="n5Q3YU20H20i3xik1-xb-339" value="2" style="whiteSpace=wrap;html=1;aspect=fixed;fillColor=#dae8fc;strokeColor=#6c8ebf;" vertex="1" parent="n5Q3YU20H20i3xik1-xb-335">
          <mxGeometry x="60" width="20" height="20" as="geometry" />
        </mxCell>
        <mxCell id="n5Q3YU20H20i3xik1-xb-340" value="" style="group" vertex="1" connectable="0" parent="1">
          <mxGeometry x="540" y="190" width="80" height="20" as="geometry" />
        </mxCell>
        <mxCell id="n5Q3YU20H20i3xik1-xb-341" value="2" style="whiteSpace=wrap;html=1;aspect=fixed;fillColor=#f5f5f5;fontColor=#333333;strokeColor=#666666;" vertex="1" parent="n5Q3YU20H20i3xik1-xb-340">
          <mxGeometry width="20" height="20" as="geometry" />
        </mxCell>
        <mxCell id="n5Q3YU20H20i3xik1-xb-342" value="2" style="whiteSpace=wrap;html=1;aspect=fixed;fillColor=#dae8fc;strokeColor=#6c8ebf;" vertex="1" parent="n5Q3YU20H20i3xik1-xb-340">
          <mxGeometry x="20" width="20" height="20" as="geometry" />
        </mxCell>
        <mxCell id="n5Q3YU20H20i3xik1-xb-343" value="2" style="whiteSpace=wrap;html=1;aspect=fixed;fillColor=#dae8fc;strokeColor=#6c8ebf;" vertex="1" parent="n5Q3YU20H20i3xik1-xb-340">
          <mxGeometry x="40" width="20" height="20" as="geometry" />
        </mxCell>
        <mxCell id="n5Q3YU20H20i3xik1-xb-344" value="2" style="whiteSpace=wrap;html=1;aspect=fixed;fillColor=#dae8fc;strokeColor=#6c8ebf;" vertex="1" parent="n5Q3YU20H20i3xik1-xb-340">
          <mxGeometry x="60" width="20" height="20" as="geometry" />
        </mxCell>
        <mxCell id="n5Q3YU20H20i3xik1-xb-345" value="" style="group" vertex="1" connectable="0" parent="1">
          <mxGeometry x="560" y="290" width="80" height="20" as="geometry" />
        </mxCell>
        <mxCell id="n5Q3YU20H20i3xik1-xb-346" value="2" style="whiteSpace=wrap;html=1;aspect=fixed;fillColor=#dae8fc;strokeColor=#6c8ebf;" vertex="1" parent="n5Q3YU20H20i3xik1-xb-345">
          <mxGeometry width="20" height="20" as="geometry" />
        </mxCell>
        <mxCell id="n5Q3YU20H20i3xik1-xb-347" value="2" style="whiteSpace=wrap;html=1;aspect=fixed;fillColor=#dae8fc;strokeColor=#6c8ebf;" vertex="1" parent="n5Q3YU20H20i3xik1-xb-345">
          <mxGeometry x="20" width="20" height="20" as="geometry" />
        </mxCell>
        <mxCell id="n5Q3YU20H20i3xik1-xb-348" value="2" style="whiteSpace=wrap;html=1;aspect=fixed;fillColor=#dae8fc;strokeColor=#6c8ebf;" vertex="1" parent="n5Q3YU20H20i3xik1-xb-345">
          <mxGeometry x="40" width="20" height="20" as="geometry" />
        </mxCell>
        <mxCell id="n5Q3YU20H20i3xik1-xb-349" value="2" style="whiteSpace=wrap;html=1;aspect=fixed;fillColor=#dae8fc;strokeColor=#6c8ebf;" vertex="1" parent="n5Q3YU20H20i3xik1-xb-345">
          <mxGeometry x="60" width="20" height="20" as="geometry" />
        </mxCell>
        <mxCell id="n5Q3YU20H20i3xik1-xb-350" value="" style="group;fillColor=#dae8fc;strokeColor=#6c8ebf;" vertex="1" connectable="0" parent="1">
          <mxGeometry x="580" y="340" width="80" height="20" as="geometry" />
        </mxCell>
        <mxCell id="n5Q3YU20H20i3xik1-xb-351" value="2" style="whiteSpace=wrap;html=1;aspect=fixed;fillColor=#dae8fc;strokeColor=#6c8ebf;" vertex="1" parent="n5Q3YU20H20i3xik1-xb-350">
          <mxGeometry width="20" height="20" as="geometry" />
        </mxCell>
        <mxCell id="n5Q3YU20H20i3xik1-xb-352" value="2" style="whiteSpace=wrap;html=1;aspect=fixed;fillColor=#dae8fc;strokeColor=#6c8ebf;" vertex="1" parent="n5Q3YU20H20i3xik1-xb-350">
          <mxGeometry x="20" width="20" height="20" as="geometry" />
        </mxCell>
        <mxCell id="n5Q3YU20H20i3xik1-xb-353" value="2" style="whiteSpace=wrap;html=1;aspect=fixed;fillColor=#dae8fc;strokeColor=#6c8ebf;" vertex="1" parent="n5Q3YU20H20i3xik1-xb-350">
          <mxGeometry x="40" width="20" height="20" as="geometry" />
        </mxCell>
        <mxCell id="n5Q3YU20H20i3xik1-xb-354" value="2" style="whiteSpace=wrap;html=1;aspect=fixed;fillColor=#f5f5f5;fontColor=#333333;strokeColor=#666666;" vertex="1" parent="n5Q3YU20H20i3xik1-xb-350">
          <mxGeometry x="60" width="20" height="20" as="geometry" />
        </mxCell>
        <mxCell id="n5Q3YU20H20i3xik1-xb-365" value="Output" style="text;html=1;strokeColor=none;fillColor=none;align=center;verticalAlign=middle;whiteSpace=wrap;rounded=0;" vertex="1" parent="1">
          <mxGeometry x="500" y="90" width="40" height="30" as="geometry" />
        </mxCell>
        <mxCell id="n5Q3YU20H20i3xik1-xb-366" value="" style="group;fillColor=#dae8fc;strokeColor=#6c8ebf;" vertex="1" connectable="0" parent="1">
          <mxGeometry x="580" y="120" width="100" height="20" as="geometry" />
        </mxCell>
        <mxCell id="n5Q3YU20H20i3xik1-xb-367" value="1" style="whiteSpace=wrap;html=1;aspect=fixed;container=0;fillColor=#dae8fc;strokeColor=#6c8ebf;" vertex="1" parent="n5Q3YU20H20i3xik1-xb-366">
          <mxGeometry width="20" height="20" as="geometry" />
        </mxCell>
        <mxCell id="n5Q3YU20H20i3xik1-xb-368" value="1" style="whiteSpace=wrap;html=1;aspect=fixed;container=0;fillColor=#dae8fc;strokeColor=#6c8ebf;" vertex="1" parent="n5Q3YU20H20i3xik1-xb-366">
          <mxGeometry x="20" width="20" height="20" as="geometry" />
        </mxCell>
        <mxCell id="n5Q3YU20H20i3xik1-xb-369" value="1" style="whiteSpace=wrap;html=1;aspect=fixed;container=0;fillColor=#f5f5f5;strokeColor=#666666;fontColor=#333333;" vertex="1" parent="n5Q3YU20H20i3xik1-xb-366">
          <mxGeometry x="40" width="20" height="20" as="geometry" />
        </mxCell>
        <mxCell id="n5Q3YU20H20i3xik1-xb-370" value="1" style="whiteSpace=wrap;html=1;aspect=fixed;container=0;fillColor=#f5f5f5;strokeColor=#666666;fontColor=#333333;" vertex="1" parent="n5Q3YU20H20i3xik1-xb-366">
          <mxGeometry x="60" width="20" height="20" as="geometry" />
        </mxCell>
        <mxCell id="n5Q3YU20H20i3xik1-xb-371" value="1" style="whiteSpace=wrap;html=1;aspect=fixed;container=0;fillColor=#f5f5f5;strokeColor=#666666;fontColor=#333333;" vertex="1" parent="n5Q3YU20H20i3xik1-xb-366">
          <mxGeometry x="80" width="20" height="20" as="geometry" />
        </mxCell>
        <mxCell id="n5Q3YU20H20i3xik1-xb-372" value="" style="group;fillColor=#dae8fc;strokeColor=#6c8ebf;" vertex="1" connectable="0" parent="1">
          <mxGeometry x="560" y="170" width="100" height="20" as="geometry" />
        </mxCell>
        <mxCell id="n5Q3YU20H20i3xik1-xb-373" value="1" style="whiteSpace=wrap;html=1;aspect=fixed;container=0;fillColor=#dae8fc;strokeColor=#6c8ebf;" vertex="1" parent="n5Q3YU20H20i3xik1-xb-372">
          <mxGeometry width="20" height="20" as="geometry" />
        </mxCell>
        <mxCell id="n5Q3YU20H20i3xik1-xb-374" value="1" style="whiteSpace=wrap;html=1;aspect=fixed;container=0;fillColor=#dae8fc;strokeColor=#6c8ebf;" vertex="1" parent="n5Q3YU20H20i3xik1-xb-372">
          <mxGeometry x="20" width="20" height="20" as="geometry" />
        </mxCell>
        <mxCell id="n5Q3YU20H20i3xik1-xb-375" value="1" style="whiteSpace=wrap;html=1;aspect=fixed;container=0;fillColor=#dae8fc;strokeColor=#6c8ebf;" vertex="1" parent="n5Q3YU20H20i3xik1-xb-372">
          <mxGeometry x="40" width="20" height="20" as="geometry" />
        </mxCell>
        <mxCell id="n5Q3YU20H20i3xik1-xb-376" value="1" style="whiteSpace=wrap;html=1;aspect=fixed;container=0;fillColor=#f5f5f5;strokeColor=#666666;fontColor=#333333;" vertex="1" parent="n5Q3YU20H20i3xik1-xb-372">
          <mxGeometry x="60" width="20" height="20" as="geometry" />
        </mxCell>
        <mxCell id="n5Q3YU20H20i3xik1-xb-377" value="1" style="whiteSpace=wrap;html=1;aspect=fixed;container=0;fillColor=#f5f5f5;strokeColor=#666666;fontColor=#333333;" vertex="1" parent="n5Q3YU20H20i3xik1-xb-372">
          <mxGeometry x="80" width="20" height="20" as="geometry" />
        </mxCell>
        <mxCell id="n5Q3YU20H20i3xik1-xb-378" value="" style="group;fillColor=#dae8fc;strokeColor=#6c8ebf;" vertex="1" connectable="0" parent="1">
          <mxGeometry x="540" y="220" width="100" height="20" as="geometry" />
        </mxCell>
        <mxCell id="n5Q3YU20H20i3xik1-xb-379" value="1" style="whiteSpace=wrap;html=1;aspect=fixed;container=0;fillColor=#dae8fc;strokeColor=#6c8ebf;" vertex="1" parent="n5Q3YU20H20i3xik1-xb-378">
          <mxGeometry width="20" height="20" as="geometry" />
        </mxCell>
        <mxCell id="n5Q3YU20H20i3xik1-xb-380" value="1" style="whiteSpace=wrap;html=1;aspect=fixed;container=0;fillColor=#dae8fc;strokeColor=#6c8ebf;" vertex="1" parent="n5Q3YU20H20i3xik1-xb-378">
          <mxGeometry x="20" width="20" height="20" as="geometry" />
        </mxCell>
        <mxCell id="n5Q3YU20H20i3xik1-xb-381" value="1" style="whiteSpace=wrap;html=1;aspect=fixed;container=0;fillColor=#dae8fc;strokeColor=#6c8ebf;" vertex="1" parent="n5Q3YU20H20i3xik1-xb-378">
          <mxGeometry x="40" width="20" height="20" as="geometry" />
        </mxCell>
        <mxCell id="n5Q3YU20H20i3xik1-xb-382" value="1" style="whiteSpace=wrap;html=1;aspect=fixed;container=0;fillColor=#dae8fc;strokeColor=#6c8ebf;" vertex="1" parent="n5Q3YU20H20i3xik1-xb-378">
          <mxGeometry x="60" width="20" height="20" as="geometry" />
        </mxCell>
        <mxCell id="n5Q3YU20H20i3xik1-xb-383" value="1" style="whiteSpace=wrap;html=1;aspect=fixed;container=0;fillColor=#f5f5f5;strokeColor=#666666;fontColor=#333333;" vertex="1" parent="n5Q3YU20H20i3xik1-xb-378">
          <mxGeometry x="80" width="20" height="20" as="geometry" />
        </mxCell>
        <mxCell id="n5Q3YU20H20i3xik1-xb-384" value="" style="group;fillColor=#dae8fc;strokeColor=#6c8ebf;" vertex="1" connectable="0" parent="1">
          <mxGeometry x="540" y="270" width="100" height="20" as="geometry" />
        </mxCell>
        <mxCell id="n5Q3YU20H20i3xik1-xb-385" value="1" style="whiteSpace=wrap;html=1;aspect=fixed;container=0;fillColor=#f5f5f5;strokeColor=#666666;fontColor=#333333;" vertex="1" parent="n5Q3YU20H20i3xik1-xb-384">
          <mxGeometry width="20" height="20" as="geometry" />
        </mxCell>
        <mxCell id="n5Q3YU20H20i3xik1-xb-386" value="1" style="whiteSpace=wrap;html=1;aspect=fixed;container=0;fillColor=#dae8fc;strokeColor=#6c8ebf;" vertex="1" parent="n5Q3YU20H20i3xik1-xb-384">
          <mxGeometry x="20" width="20" height="20" as="geometry" />
        </mxCell>
        <mxCell id="n5Q3YU20H20i3xik1-xb-387" value="1" style="whiteSpace=wrap;html=1;aspect=fixed;container=0;fillColor=#dae8fc;strokeColor=#6c8ebf;" vertex="1" parent="n5Q3YU20H20i3xik1-xb-384">
          <mxGeometry x="40" width="20" height="20" as="geometry" />
        </mxCell>
        <mxCell id="n5Q3YU20H20i3xik1-xb-388" value="1" style="whiteSpace=wrap;html=1;aspect=fixed;container=0;fillColor=#dae8fc;strokeColor=#6c8ebf;" vertex="1" parent="n5Q3YU20H20i3xik1-xb-384">
          <mxGeometry x="60" width="20" height="20" as="geometry" />
        </mxCell>
        <mxCell id="n5Q3YU20H20i3xik1-xb-389" value="1" style="whiteSpace=wrap;html=1;aspect=fixed;container=0;fillColor=#dae8fc;strokeColor=#6c8ebf;" vertex="1" parent="n5Q3YU20H20i3xik1-xb-384">
          <mxGeometry x="80" width="20" height="20" as="geometry" />
        </mxCell>
        <mxCell id="n5Q3YU20H20i3xik1-xb-390" value="" style="group;fillColor=#dae8fc;strokeColor=#6c8ebf;" vertex="1" connectable="0" parent="1">
          <mxGeometry x="540" y="320" width="100" height="20" as="geometry" />
        </mxCell>
        <mxCell id="n5Q3YU20H20i3xik1-xb-391" value="1" style="whiteSpace=wrap;html=1;aspect=fixed;container=0;fillColor=#f5f5f5;strokeColor=#666666;fontColor=#333333;" vertex="1" parent="n5Q3YU20H20i3xik1-xb-390">
          <mxGeometry width="20" height="20" as="geometry" />
        </mxCell>
        <mxCell id="n5Q3YU20H20i3xik1-xb-392" value="1" style="whiteSpace=wrap;html=1;aspect=fixed;container=0;fillColor=#f5f5f5;strokeColor=#666666;fontColor=#333333;" vertex="1" parent="n5Q3YU20H20i3xik1-xb-390">
          <mxGeometry x="20" width="20" height="20" as="geometry" />
        </mxCell>
        <mxCell id="n5Q3YU20H20i3xik1-xb-393" value="1" style="whiteSpace=wrap;html=1;aspect=fixed;container=0;fillColor=#dae8fc;strokeColor=#6c8ebf;" vertex="1" parent="n5Q3YU20H20i3xik1-xb-390">
          <mxGeometry x="40" width="20" height="20" as="geometry" />
        </mxCell>
        <mxCell id="n5Q3YU20H20i3xik1-xb-394" value="1" style="whiteSpace=wrap;html=1;aspect=fixed;container=0;fillColor=#dae8fc;strokeColor=#6c8ebf;" vertex="1" parent="n5Q3YU20H20i3xik1-xb-390">
          <mxGeometry x="60" width="20" height="20" as="geometry" />
        </mxCell>
        <mxCell id="n5Q3YU20H20i3xik1-xb-395" value="1" style="whiteSpace=wrap;html=1;aspect=fixed;container=0;fillColor=#dae8fc;strokeColor=#6c8ebf;" vertex="1" parent="n5Q3YU20H20i3xik1-xb-390">
          <mxGeometry x="80" width="20" height="20" as="geometry" />
        </mxCell>
        <mxCell id="n5Q3YU20H20i3xik1-xb-408" value="" style="group" vertex="1" connectable="0" parent="1">
          <mxGeometry x="540" y="240" width="80" height="20" as="geometry" />
        </mxCell>
        <mxCell id="n5Q3YU20H20i3xik1-xb-409" value="2" style="whiteSpace=wrap;html=1;aspect=fixed;fillColor=#dae8fc;strokeColor=#6c8ebf;" vertex="1" parent="n5Q3YU20H20i3xik1-xb-408">
          <mxGeometry width="20" height="20" as="geometry" />
        </mxCell>
        <mxCell id="n5Q3YU20H20i3xik1-xb-410" value="2" style="whiteSpace=wrap;html=1;aspect=fixed;fillColor=#dae8fc;strokeColor=#6c8ebf;" vertex="1" parent="n5Q3YU20H20i3xik1-xb-408">
          <mxGeometry x="20" width="20" height="20" as="geometry" />
        </mxCell>
        <mxCell id="n5Q3YU20H20i3xik1-xb-411" value="2" style="whiteSpace=wrap;html=1;aspect=fixed;fillColor=#dae8fc;strokeColor=#6c8ebf;" vertex="1" parent="n5Q3YU20H20i3xik1-xb-408">
          <mxGeometry x="40" width="20" height="20" as="geometry" />
        </mxCell>
        <mxCell id="n5Q3YU20H20i3xik1-xb-412" value="2" style="whiteSpace=wrap;html=1;aspect=fixed;fillColor=#dae8fc;strokeColor=#6c8ebf;" vertex="1" parent="n5Q3YU20H20i3xik1-xb-408">
          <mxGeometry x="60" width="20" height="20" as="geometry" />
        </mxCell>
        <mxCell id="n5Q3YU20H20i3xik1-xb-413" value="Mode: &lt;b&gt;same&lt;/b&gt;" style="text;html=1;strokeColor=none;fillColor=none;align=center;verticalAlign=middle;whiteSpace=wrap;rounded=0;" vertex="1" parent="1">
          <mxGeometry x="540" y="90" width="140" height="30" as="geometry" />
        </mxCell>
        <mxCell id="n5Q3YU20H20i3xik1-xb-415" value="" style="group" vertex="1" connectable="0" parent="1">
          <mxGeometry x="340" y="40" width="120" height="40" as="geometry" />
        </mxCell>
        <mxCell id="n5Q3YU20H20i3xik1-xb-416" value="" style="group" vertex="1" connectable="0" parent="n5Q3YU20H20i3xik1-xb-415">
          <mxGeometry y="20" width="100" height="20" as="geometry" />
        </mxCell>
        <mxCell id="n5Q3YU20H20i3xik1-xb-417" value="y:" style="text;html=1;strokeColor=none;fillColor=none;align=center;verticalAlign=middle;whiteSpace=wrap;rounded=0;fontStyle=1" vertex="1" parent="n5Q3YU20H20i3xik1-xb-416">
          <mxGeometry width="20" height="20" as="geometry" />
        </mxCell>
        <mxCell id="n5Q3YU20H20i3xik1-xb-418" value="" style="group" vertex="1" connectable="0" parent="n5Q3YU20H20i3xik1-xb-416">
          <mxGeometry x="20" width="80" height="20" as="geometry" />
        </mxCell>
        <mxCell id="n5Q3YU20H20i3xik1-xb-419" value="2" style="whiteSpace=wrap;html=1;aspect=fixed;container=0;" vertex="1" parent="n5Q3YU20H20i3xik1-xb-418">
          <mxGeometry width="20" height="20" as="geometry" />
        </mxCell>
        <mxCell id="n5Q3YU20H20i3xik1-xb-420" value="2" style="whiteSpace=wrap;html=1;aspect=fixed;container=0;" vertex="1" parent="n5Q3YU20H20i3xik1-xb-418">
          <mxGeometry x="20" width="20" height="20" as="geometry" />
        </mxCell>
        <mxCell id="n5Q3YU20H20i3xik1-xb-421" value="2" style="whiteSpace=wrap;html=1;aspect=fixed;container=0;" vertex="1" parent="n5Q3YU20H20i3xik1-xb-418">
          <mxGeometry x="40" width="20" height="20" as="geometry" />
        </mxCell>
        <mxCell id="n5Q3YU20H20i3xik1-xb-422" value="2" style="whiteSpace=wrap;html=1;aspect=fixed;container=0;" vertex="1" parent="n5Q3YU20H20i3xik1-xb-418">
          <mxGeometry x="60" width="20" height="20" as="geometry" />
        </mxCell>
        <mxCell id="n5Q3YU20H20i3xik1-xb-423" value="" style="group" vertex="1" connectable="0" parent="n5Q3YU20H20i3xik1-xb-415">
          <mxGeometry width="120" height="20" as="geometry" />
        </mxCell>
        <mxCell id="n5Q3YU20H20i3xik1-xb-424" value="x:" style="text;html=1;strokeColor=none;fillColor=none;align=center;verticalAlign=middle;whiteSpace=wrap;rounded=0;fontStyle=1" vertex="1" parent="n5Q3YU20H20i3xik1-xb-423">
          <mxGeometry width="20" height="20" as="geometry" />
        </mxCell>
        <mxCell id="n5Q3YU20H20i3xik1-xb-425" value="" style="group" vertex="1" connectable="0" parent="n5Q3YU20H20i3xik1-xb-423">
          <mxGeometry x="20" width="100" height="20" as="geometry" />
        </mxCell>
        <mxCell id="n5Q3YU20H20i3xik1-xb-426" value="1" style="whiteSpace=wrap;html=1;aspect=fixed;container=0;" vertex="1" parent="n5Q3YU20H20i3xik1-xb-425">
          <mxGeometry width="20" height="20" as="geometry" />
        </mxCell>
        <mxCell id="n5Q3YU20H20i3xik1-xb-427" value="1" style="whiteSpace=wrap;html=1;aspect=fixed;container=0;" vertex="1" parent="n5Q3YU20H20i3xik1-xb-425">
          <mxGeometry x="20" width="20" height="20" as="geometry" />
        </mxCell>
        <mxCell id="n5Q3YU20H20i3xik1-xb-428" value="1" style="whiteSpace=wrap;html=1;aspect=fixed;container=0;" vertex="1" parent="n5Q3YU20H20i3xik1-xb-425">
          <mxGeometry x="40" width="20" height="20" as="geometry" />
        </mxCell>
        <mxCell id="n5Q3YU20H20i3xik1-xb-429" value="1" style="whiteSpace=wrap;html=1;aspect=fixed;container=0;" vertex="1" parent="n5Q3YU20H20i3xik1-xb-425">
          <mxGeometry x="60" width="20" height="20" as="geometry" />
        </mxCell>
        <mxCell id="n5Q3YU20H20i3xik1-xb-430" value="1" style="whiteSpace=wrap;html=1;aspect=fixed;container=0;" vertex="1" parent="n5Q3YU20H20i3xik1-xb-425">
          <mxGeometry x="80" width="20" height="20" as="geometry" />
        </mxCell>
      </root>
    </mxGraphModel>
  </diagram>
</mxfile>
